# xmcd
#
# Track frame offsets:
#       150
#       16071
#       42901
#       53382
#       70795
#       79832
#       99393
#       110722
#       131755
#       144004
#       164332
#       176305
#
# Disc length: 2496 seconds
#
# Revision: 1
# Processed by: cddbd v1.4PL0 Copyright (c) Steve Scherf et al.
# Submitted via: MusiCat 1.1
#
DISCID=8e09be0c
DTITLE=Various Artist - The World of Blues Power
DYEAR=1900
DGENRE=
TTITLE0=All Your Love  J Mayall w Eric Clapton
TTITLE1=Spoonful - Ten Years After
TTITLE2=Taste and Try - Savoy Brown
TTITLE3=Greeny - J Mayall w Peter Green
TTITLE4=Barrelhouse Woman - champion Jack Dupree
TTITLE5=All My Life - J Mayall w Paul Butterfield
TTITLE6=Blue Coat Man - Eddie Boyd
TTITLE7=Out of Reach - J mayall withPeter Green
TTITLE8=I Feel like a Millionaire - Champion Jack Dupree
TTITLE9=Someday people - Savoy Brown
TTITLE10=Feel It For Me - Ten Years After
TTITLE11=Steppin' Out - J Mayall w Eric Clapton
EXTD=0\n\n\n
EXTT0=
EXTT1=
EXTT2=
EXTT3=
EXTT4=
EXTT5=
EXTT6=
EXTT7=
EXTT8=
EXTT9=
EXTT10=
EXTT11=
PLAYORDER=
